<svg xmlns="http://www.w3.org/2000/svg" viewBox="0 0 594.17 93.16"><defs><style>.cls-1{fill:#cc3338;}.cls-2{fill:#fff;}.cls-3{fill:#242424;}</style></defs><g id="Layer_2" data-name="Layer 2"><g id="Layer_1-2" data-name="Layer 1"><g id="Layer_2-2" data-name="Layer 2"><g id="Layer_1-2-2" data-name="Layer 1-2"><polygon class="cls-1" points="79.42 1.32 74.71 11.96 85.42 13.38 81.53 22.62 96.62 20.96 84.69 39.22 91.27 47.76 88.22 54.59 87.74 55.73 87.37 56.54 108.6 78.11 110.01 78.11 110.01 1.32 79.42 1.32"/><path class="cls-1" d="M89.22,67.3l-4-4.15h0L85.07,63h0l-1.23-1.26-3-3.08-.36-.35,5.18-9.63-6.1-9.26,10-14L75.94,26.89,81.3,16.22l-10.72-1.9,5.92-13H0V78.11H22.53l-.05,0V78h14.6v.1l-.06.06H99.78L89.22,67.3Z"/><path class="cls-2" d="M21.57,59.38l-.13.13a5.63,5.63,0,0,0-1.29.23,1.7,1.7,0,0,0-.58.64A23,23,0,0,0,18.36,63l-1,2.35-1.91,4.54Q13,75.74,12.1,78.11H9.92L3.34,62.62a10.77,10.77,0,0,0-1.45-2.78,3.06,3.06,0,0,0-1.74-.33L0,59.36v-.94l.16-.13c1,.06,2.26.09,3.79.09,1.9,0,3.63,0,5.2-.09l.14.15v.94l-.13.13a4.9,4.9,0,0,0-1.9.28.47.47,0,0,0-.24.45A13.89,13.89,0,0,0,8,62.89l.67,1.65,3.63,8.7,3.16-7.77c.12-.3.41-1,.85-2.24a17.06,17.06,0,0,0,1-3c0-.31-.11-.49-.32-.56A12.21,12.21,0,0,0,15,59.51l-.14-.13v-1l.16-.14c1.07.06,2.19.09,3.35.09.83,0,1.84,0,3.05-.08l.16.15Z"/><path class="cls-2" d="M38.7,73.46l-.11-.14h-.87l-.14.15-.35,1.73A2.19,2.19,0,0,1,37,76a.46.46,0,0,1-.23.16,23.32,23.32,0,0,1-5.13.31H29.66c0-1.14-.06-2.32-.06-3.53v-8.3a28.34,28.34,0,0,1,.18-4.32.62.62,0,0,1,.48-.53c.15,0,.7-.08,1.68-.14l.13-.12v-1l-.13-.12c-1,.06-2.52.08-4.48.08s-3.32,0-4.32-.08l-.14.12v.94l.14.14c.56,0,1.12.07,1.67.14a.63.63,0,0,1,.47.52,31.09,31.09,0,0,1,.17,4.32v7l0,3.1a7.16,7.16,0,0,1-.16,1.85,5,5,0,0,1-1.14.81l-.07.17v.4l.05,0H38.33l.06-.06A30.56,30.56,0,0,1,38.7,73.46Z"/><path class="cls-2" d="M63.62,67.22a10.63,10.63,0,0,1-3.07,8.07q-3,2.85-8.16,2.82a10.6,10.6,0,0,1-7.66-2.67A9.84,9.84,0,0,1,41.94,68q0-6.69,5.25-9.28a13.32,13.32,0,0,1,5.87-1.17q5,0,7.76,2.55A9.33,9.33,0,0,1,63.62,67.22Zm-4.4.72a11,11,0,0,0-1.66-6.41,5.59,5.59,0,0,0-4.89-2.37A5.48,5.48,0,0,0,47,62.87a11.77,11.77,0,0,0-.71,4.28A12.42,12.42,0,0,0,47.93,74a5.61,5.61,0,0,0,5,2.56,5.37,5.37,0,0,0,5.47-3.9A13.76,13.76,0,0,0,59.22,67.94Z"/><path class="cls-2" d="M92,77.17,91.85,77c-.54,0-1.08-.07-1.61-.14a.62.62,0,0,1-.45-.52,32.63,32.63,0,0,1-.17-4.31V64.69a32.77,32.77,0,0,1,.17-4.31.61.61,0,0,1,.45-.51,14.37,14.37,0,0,1,1.61-.14L92,59.6v-1l-.14-.12c-.95,0-2.31.08-4.09.08-.36,0-1.05,0-2.08-.08-.36,1-.74,1.88-1.12,2.73l-.19.4-3.07,6.7-2.09,4.31-4.34-9.28L74,61.48l-1.28-3c-.83,0-1.8.08-2.91.08-1.44,0-2.64,0-3.59-.08l-.13.12v.94l.13.14a14.75,14.75,0,0,1,1.62.14.6.6,0,0,1,.44.52,31,31,0,0,1,.18,4.31V72a31.46,31.46,0,0,1-.21,4.34.6.6,0,0,1-.45.51,14.37,14.37,0,0,1-1.61.14l-.14.14v1h6.35v-.94L72.24,77c-.54,0-1.08-.07-1.61-.14a.6.6,0,0,1-.42-.53A31.22,31.22,0,0,1,70,72.05V62.37L73.62,70l1.89,4.11c.73,1.58,1.32,2.91,1.77,4h1.21l2.34-5.22c1-2.24,1.61-3.54,1.78-3.9l2.94-6.12.11-.23V72a31.22,31.22,0,0,1-.18,4.32.61.61,0,0,1-.45.51,14.37,14.37,0,0,1-1.61.14l-.14.14v1H92Z"/></g></g><path class="cls-3" d="M177.61,73.81H165L138.64,40V73.81H128.26V1.23h10.38V33.66L163.93,1.23h12.39l-27.45,34.9Z"/><path class="cls-3" d="M187.47,71.44a20.43,20.43,0,0,1-7-9.16,35.89,35.89,0,0,1-2.5-13.9,35.47,35.47,0,0,1,2.5-13.84,20.49,20.49,0,0,1,7-9.11,19.17,19.17,0,0,1,21.18,0,20.22,20.22,0,0,1,7,9.11,35.86,35.86,0,0,1,2.46,13.84,36.28,36.28,0,0,1-2.46,13.9,20.15,20.15,0,0,1-7,9.16,19.17,19.17,0,0,1-21.18,0Zm18-10.91q2.58-4.11,2.57-12.15t-2.57-12.09a8.22,8.22,0,0,0-7.41-4.17,8.32,8.32,0,0,0-7.45,4.17Q188,40.46,188,48.38t2.57,12.15a8.8,8.8,0,0,0,14.9,0Z"/><path class="cls-3" d="M259.81,27.38q3.46,5.16,3.47,15.55V73.81H253.21V43.65q0-5.86-1.73-8.55a6,6,0,0,0-5.43-2.67,8.27,8.27,0,0,0-7,3.5q-2.61,3.49-2.61,9.36V73.81H226.4V23.47h9.82V31a15.72,15.72,0,0,1,5.4-6.49,13.41,13.41,0,0,1,7.65-2.26Q256.35,22.24,259.81,27.38Z"/><path class="cls-3" d="M286.3,23.47h26V73.81H302.24V33.15H286.3V73.81H276.24V33.15h-7.57V23.47h7.57q0-10.9,4.51-16.42t13.6-6l3.46-.21.49,9.58-3.79.2q-4.5.32-6.36,2.83T286.3,21ZM301.68,0H313V12.87H301.68Z"/><path class="cls-3" d="M361.1,23.47V69.18Q361.1,81,356,87.09t-15.09,6.07a29,29,0,0,1-9.91-1.7,25.54,25.54,0,0,1-8.29-4.78l2.82-9.06q7.32,5.66,15.14,5.66,10.46,0,10.46-13.18V63.52A14.47,14.47,0,0,1,346,70.05a13.3,13.3,0,0,1-7.73,2.32,14.4,14.4,0,0,1-9.14-3.14,20.71,20.71,0,0,1-6.24-8.8,35.28,35.28,0,0,1-2.25-13.08,36.26,36.26,0,0,1,2.21-13.12,20.15,20.15,0,0,1,6.24-8.85,14.51,14.51,0,0,1,9.18-3.14A13.37,13.37,0,0,1,346,24.55a14.55,14.55,0,0,1,5.15,6.54V23.47Zm-12.68,34.9q2.68-4,2.69-11t-2.69-11.11a9,9,0,0,0-15,0q-2.75,4-2.74,11.11,0,6.9,2.74,11a9,9,0,0,0,15,0Z"/><path class="cls-3" d="M407.63,23.47V73.81h-9.82V66.09a15.14,15.14,0,0,1-5,6.33,12,12,0,0,1-7.09,2.21q-14.49,0-14.49-20.79V23.47H381.3V53.94c0,3.57.57,6.21,1.69,7.93a5.92,5.92,0,0,0,5.32,2.57A7.87,7.87,0,0,0,395,60.89q2.54-3.55,2.54-9.42v-28Z"/><path class="cls-3" d="M444,32.94l-5.87.72q-10,1.34-10,13V73.81H418.1V23.47h9.58v8.85q3.06-9,12.64-9.88l3.06-.31Z"/><path class="cls-3" d="M478,27.38q4,5.16,4,15.86V73.81h-9.58V66.09a12.93,12.93,0,0,1-4.31,6.28,10.81,10.81,0,0,1-6.8,2.26,12.93,12.93,0,0,1-7.16-2.06,14.31,14.31,0,0,1-5.08-5.66,17.36,17.36,0,0,1-1.85-8q0-5.55,2.22-8.75c1.47-2.12,3.87-3.67,7.2-4.63a51.85,51.85,0,0,1,13.77-1.44h2V41.69q0-5.14-1.73-7.41T465,32a17.53,17.53,0,0,0-6.56,1.38,30.3,30.3,0,0,0-6.72,3.87l-2.82-8.86a28.29,28.29,0,0,1,8-4.42,25.19,25.19,0,0,1,8.86-1.75Q474,22.24,478,27.38Zm-8.09,34.54a14.66,14.66,0,0,0,2.53-8.9V50.85H471a43.71,43.71,0,0,0-8.37.62,7.29,7.29,0,0,0-4.27,2.16,6.39,6.39,0,0,0-1.29,4.22,8.09,8.09,0,0,0,1.78,5.41,5.61,5.61,0,0,0,4.5,2.11A7.82,7.82,0,0,0,469.91,61.92Z"/><path class="cls-3" d="M516.08,64.65l-.48,9.57a34.56,34.56,0,0,1-4.43.31q-8.3,0-12.24-4.89T495,55.07V33.15h-7.56V23.47H495v-15h10.07v15h10.38v9.68H505.05V54.87q0,10.1,7.33,10.09A24.19,24.19,0,0,0,516.08,64.65Z"/><path class="cls-3" d="M529.32,71.44a20.43,20.43,0,0,1-7-9.16,35.7,35.7,0,0,1-2.5-13.9,35.29,35.29,0,0,1,2.5-13.84,20.49,20.49,0,0,1,7-9.11,19.17,19.17,0,0,1,21.18,0,20.28,20.28,0,0,1,7,9.11A35.86,35.86,0,0,1,560,48.38a36.28,36.28,0,0,1-2.46,13.9,20.22,20.22,0,0,1-7,9.16,19.17,19.17,0,0,1-21.18,0Zm18-10.91q2.56-4.11,2.57-12.15t-2.57-12.09a8.22,8.22,0,0,0-7.41-4.17,8.31,8.31,0,0,0-7.45,4.17q-2.61,4.17-2.61,12.09t2.57,12.15a8.8,8.8,0,0,0,14.9,0Z"/><path class="cls-3" d="M594.17,32.94l-5.87.72q-10,1.34-10,13V73.81H568.25V23.47h9.58v8.85q3.06-9,12.64-9.88l3.06-.31Z"/></g></g></svg>