<svg xmlns="http://www.w3.org/2000/svg" viewBox="0 0 589.83 101.91"><defs><style>.cls-1{fill:#242424;}.cls-2{fill:#ee2f24;}</style></defs><g id="Layer_2" data-name="Layer 2"><g id="Layer_1-2" data-name="Layer 1"><g id="Layer_2-2" data-name="Layer 2"><g id="Layer_1-2-2" data-name="Layer 1-2"><path class="cls-1" d="M173.27,82.56H160.66L134.3,48.75V82.56H123.92V10H134.3V42.41L159.59,10H172l-27.45,34.9Z"/><path class="cls-1" d="M183.13,80.19a20.27,20.27,0,0,1-7-9.16,35.7,35.7,0,0,1-2.5-13.9,35.44,35.44,0,0,1,2.5-13.84,20.43,20.43,0,0,1,7-9.11,19.19,19.19,0,0,1,21.18,0,20.37,20.37,0,0,1,7,9.11,36,36,0,0,1,2.46,13.84A36.45,36.45,0,0,1,211.31,71a20.21,20.21,0,0,1-7,9.16A19.15,19.15,0,0,1,183.13,80.19Zm18-10.91q2.58-4.11,2.57-12.15T201.13,45a8.7,8.7,0,0,0-14.86,0q-2.61,4.17-2.61,12.09t2.57,12.15a8.8,8.8,0,0,0,14.9,0Z"/><path class="cls-1" d="M255.47,36.13q3.45,5.16,3.47,15.55V82.56H248.87V52.4q0-5.85-1.73-8.55a6,6,0,0,0-5.43-2.67,8.27,8.27,0,0,0-7,3.5Q232.1,48.18,232.1,54V82.56h-10V32.22h9.82v7.53a15.76,15.76,0,0,1,5.4-6.49A13.42,13.42,0,0,1,244.93,31Q252,31,255.47,36.13Z"/><path class="cls-1" d="M282,32.22h26V82.56H297.9V41.9H282V82.56H271.9V41.9h-7.57V32.22h7.57q0-10.89,4.51-16.42t13.6-6l3.46-.21.49,9.58-3.79.2q-4.5.33-6.36,2.83c-1.24,1.68-1.86,4.19-1.85,7.55ZM297.34,8.75h11.32V21.62H297.34Z"/><path class="cls-1" d="M356.76,32.22V77.93q0,11.82-5.1,17.91t-15.09,6.07a28.81,28.81,0,0,1-9.91-1.7,25.19,25.19,0,0,1-8.29-4.78l2.82-9.06Q328.51,92,336.33,92q10.46,0,10.46-13.18V72.27a14.42,14.42,0,0,1-5.13,6.53,13.26,13.26,0,0,1-7.73,2.32A14.36,14.36,0,0,1,324.79,78a20.54,20.54,0,0,1-6.24-8.8A35.12,35.12,0,0,1,316.3,56.1,36.24,36.24,0,0,1,318.51,43a20.16,20.16,0,0,1,6.24-8.85A14.59,14.59,0,0,1,333.93,31a13.47,13.47,0,0,1,7.73,2.31,14.72,14.72,0,0,1,5.15,6.54V32.22Zm-12.68,34.9q2.67-4,2.69-11T344.08,45a9,9,0,0,0-12.48-2.52A8.89,8.89,0,0,0,329.08,45q-2.76,4-2.74,11.11,0,6.9,2.74,11a9,9,0,0,0,15,0Z"/><path class="cls-1" d="M403.29,32.22V82.56h-9.82V74.84a15.16,15.16,0,0,1-5,6.33,11.94,11.94,0,0,1-7.09,2.21q-14.49,0-14.49-20.79V32.22H377V62.69c0,3.57.57,6.21,1.69,7.93A5.88,5.88,0,0,0,384,73.19a7.87,7.87,0,0,0,6.69-3.55q2.54-3.54,2.54-9.42v-28Z"/><path class="cls-1" d="M439.66,41.69l-5.87.72q-10,1.35-10,13V82.56h-10V32.22h9.58v8.85q3.06-9,12.64-9.88l3.06-.31Z"/><path class="cls-1" d="M473.66,36.13q4,5.16,4,15.86V82.56h-9.58V74.84a13,13,0,0,1-4.31,6.28,10.76,10.76,0,0,1-6.8,2.26,12.8,12.8,0,0,1-7.16-2.06,14.15,14.15,0,0,1-5.08-5.66,17.22,17.22,0,0,1-1.85-8c0-3.7.74-6.61,2.22-8.75s3.87-3.67,7.2-4.63a52.26,52.26,0,0,1,13.77-1.44h2v-2.4q0-5.13-1.73-7.41t-5.68-2.28a17.75,17.75,0,0,0-6.56,1.38A30.33,30.33,0,0,0,447.38,46l-2.82-8.86a28.46,28.46,0,0,1,8-4.42A25.32,25.32,0,0,1,461.42,31Q469.66,31,473.66,36.13Zm-8.09,34.54a14.64,14.64,0,0,0,2.53-8.9V59.6h-1.44a44.22,44.22,0,0,0-8.37.62A7.28,7.28,0,0,0,454,62.38a6.36,6.36,0,0,0-1.29,4.22A8,8,0,0,0,454.51,72a5.58,5.58,0,0,0,4.5,2.11A7.82,7.82,0,0,0,465.57,70.67Z"/><path class="cls-1" d="M511.74,73.4,511.26,83a32.87,32.87,0,0,1-4.43.31q-8.31,0-12.24-4.89t-3.93-14.57V41.9H483.1V32.22h7.56v-15h10.07v15h10.38V41.9h-10.4V63.62q0,10.11,7.33,10.09A23,23,0,0,0,511.74,73.4Z"/><path class="cls-1" d="M525,80.19A20.27,20.27,0,0,1,518,71a35.7,35.7,0,0,1-2.5-13.9A35.08,35.08,0,0,1,518,43.29a20.43,20.43,0,0,1,7-9.11,19.19,19.19,0,0,1,21.18,0,20.37,20.37,0,0,1,7,9.11,36.22,36.22,0,0,1,2.5,13.84A36.45,36.45,0,0,1,553.2,71a20.21,20.21,0,0,1-7,9.16,19.15,19.15,0,0,1-21.18,0Zm18-10.91q2.55-4.11,2.57-12.15T543,45a8.7,8.7,0,0,0-14.86,0q-2.61,4.17-2.61,12.09t2.57,12.15a8.8,8.8,0,0,0,14.9,0Z"/><path class="cls-1" d="M589.83,41.69l-5.87.72q-10,1.35-10,13V82.56H563.91V32.22h9.58v8.85q3.06-9,12.64-9.88l3.06-.31Z"/></g></g><g id="Layer_2-3" data-name="Layer 2"><g id="Layer_1-2-3" data-name="Layer 1-2"><path class="cls-2" d="M89.31,0H53.93L48.51,12.27,62.08,14,57.36,25.17,77.18,23,60.85,48l8.25,10.7L64.84,68.2l-.63,1.53L91.3,97.21a7.9,7.9,0,0,1-2,.28H76L63.65,84.8l-4.93-5-.35-.38L53,73.93,51.73,72.7l6.71-12.44L50.61,48.38,61.94,32.51,45.23,34.33l7.2-14.23L38.87,17.69,46.91,0H8.46A8.29,8.29,0,0,0,0,8.11v81.2a8.28,8.28,0,0,0,8.28,8.28h81a8.28,8.28,0,0,0,8.28-8.28v-81A8.29,8.29,0,0,0,89.31,0Z"/></g></g></g></g></svg>